<?xml version="1.0" encoding="UTF-8" standalone="no"?>
<!-- Created with Inkscape (http://www.inkscape.org/) -->

<svg
   width="508mm"
   height="285.75mm"
   viewBox="0 0 508 285.75"
   version="1.1"
   id="svg18580"
   inkscape:version="1.2.2 (1:1.2.2+202212051552+b0a8486541)"
   sodipodi:docname="rika_relief_org_website_ui.svg"
   xmlns:inkscape="http://www.inkscape.org/namespaces/inkscape"
   xmlns:sodipodi="http://sodipodi.sourceforge.net/DTD/sodipodi-0.dtd"
   xmlns="http://www.w3.org/2000/svg"
   xmlns:svg="http://www.w3.org/2000/svg">
  <sodipodi:namedview
     id="namedview18582"
     pagecolor="#ffffff"
     bordercolor="#999999"
     borderopacity="1"
     inkscape:showpageshadow="0"
     inkscape:pageopacity="0"
     inkscape:pagecheckerboard="0"
     inkscape:deskcolor="#d1d1d1"
     inkscape:document-units="mm"
     showgrid="false"
     inkscape:zoom="0.63473579"
     inkscape:cx="8548.4387"
     inkscape:cy="364.71868"
     inkscape:window-width="1862"
     inkscape:window-height="1016"
     inkscape:window-x="58"
     inkscape:window-y="27"
     inkscape:window-maximized="1"
     inkscape:current-layer="g10897" />
  <defs
     id="defs18577" />
  <g
     inkscape:label="Layer 1"
     inkscape:groupmode="layer"
     id="layer1"
     transform="translate(-2072)">
    <g
       transform="translate(945.69982,-79.795883)"
       id="g10901"
       class="UnoptimicedTransforms"
       style="display:inline">
      <g
         transform="translate(10.583333)"
         id="g10899"
         class="UnoptimicedTransforms">
        <g
           transform="translate(-15.875)"
           id="g10897"
           class="UnoptimicedTransforms">
          <g
             id="g12636">
            <rect
               style="fill:none;fill-opacity:1;stroke:#000000;stroke-width:0.0799042;stroke-linecap:round;stroke-dasharray:none;stroke-opacity:0"
               id="rect11924"
               width="348.58215"
               height="215.43562"
               x="1211.3008"
               y="114.95307"
               rx="3.9758127"
               ry="3.5773196" />
            <g
               id="g11943">
              <g
                 id="g12611"
                 transform="translate(3.4237536e-5,11.725589)">
                <text
                   xml:space="preserve"
                   style="font-style:normal;font-variant:normal;font-weight:normal;font-stretch:normal;font-size:31.1359px;line-height:1.25;font-family:sans-serif;-inkscape-font-specification:'sans-serif, Normal';font-variant-ligatures:normal;font-variant-caps:normal;font-variant-numeric:normal;font-variant-east-asian:normal;fill:#000000;fill-opacity:1;stroke:none;stroke-width:0.778398"
                   x="2229.9697"
                   y="191.04535"
                   id="text10827"
                   transform="translate(-940.40815,79.795883)"><tspan
                     sodipodi:role="line"
                     id="tspan10825"
                     x="2229.9697"
                     y="191.04535">No Posts Yet</tspan></text>
                <g
                   id="g12587">
                  <path
                     id="path10863"
                     d="m 1385.5547,150.87305 c -1.3309,0 -2.4082,1.07931 -2.4082,2.41015 0,1.33084 1.0773,2.4082 2.4082,2.40821 1.3308,-1e-5 2.4101,-1.07737 2.4101,-2.40821 0,-1.33084 -1.0793,-2.41015 -2.4101,-2.41015 z"
                     style="fill:none;fill-opacity:1;stroke:#000000;stroke-width:0.529167;stroke-dasharray:none;stroke-opacity:1" />
                  <path
                     id="path10865"
                     d="m 1385.5547,199.53906 c -1.3309,0 -2.4082,1.07932 -2.4082,2.41016 0,1.33084 1.0773,2.41015 2.4082,2.41016 1.3308,-10e-6 2.4101,-1.07932 2.4101,-2.41016 0,-1.33084 -1.0793,-2.41016 -2.4101,-2.41016 z"
                     style="fill:none;fill-opacity:1;stroke:#000000;stroke-width:0.529167;stroke-dasharray:none;stroke-opacity:1" />
                  <path
                     id="path10867"
                     d="m 1409.457,175.38281 c -1.3308,0 -2.4101,1.07737 -2.4101,2.40821 0,1.33084 1.0793,2.41015 2.4101,2.41015 1.3309,0 2.4102,-1.07931 2.4102,-2.41015 0,-1.33084 -1.0793,-2.40821 -2.4102,-2.40821 z"
                     style="fill:none;fill-opacity:1;stroke:#000000;stroke-width:0.529167;stroke-dasharray:none;stroke-opacity:1" />
                  <path
                     id="path10869"
                     d="m 1361.5039,175.38281 c -1.3308,0 -2.4101,1.07737 -2.4101,2.40821 0,1.33084 1.0793,2.41015 2.4101,2.41015 1.3308,0 2.4102,-1.07931 2.4102,-2.41015 0,-1.33084 -1.0794,-2.40821 -2.4102,-2.40821 z"
                     style="fill:none;fill-opacity:1;stroke:#000000;stroke-width:0.529167;stroke-dasharray:none;stroke-opacity:1" />
                  <path
                     id="path10871"
                     d="m 1385.5547,164.09961 c -7.5623,-1e-5 -13.6914,6.12908 -13.6914,13.69141 0,7.56232 6.1291,13.69337 13.6914,13.69336 7.5623,1e-5 13.6933,-6.13104 13.6933,-13.69336 0,-7.56233 -6.131,-13.69142 -13.6933,-13.69141 z"
                     style="fill:none;fill-opacity:1;stroke:#000000;stroke-width:0.80879;stroke-dasharray:none;stroke-opacity:1" />
                  <path
                     id="path10873"
                     d="m 1381.3379,156.28711 -17.0684,17.06836 z"
                     style="fill:none;stroke:#000000;stroke-width:0.970546;stroke-linecap:round;stroke-linejoin:miter;stroke-dasharray:none;stroke-opacity:1" />
                  <path
                     id="path10875"
                     d="m 1364.2695,181.52148 17.0684,17.06836 z"
                     style="fill:none;stroke:#000000;stroke-width:0.970546;stroke-linecap:round;stroke-linejoin:miter;stroke-dasharray:none;stroke-opacity:1" />
                  <path
                     id="path10877"
                     d="m 1407.2188,181.52148 -17.0684,17.06836 z"
                     style="fill:none;stroke:#000000;stroke-width:0.970546;stroke-linecap:round;stroke-linejoin:miter;stroke-dasharray:none;stroke-opacity:1" />
                  <path
                     id="path10879"
                     d="m 1389.5039,156.28711 17.0684,17.06836 z"
                     style="fill:none;stroke:#000000;stroke-width:0.970546;stroke-linecap:round;stroke-linejoin:miter;stroke-dasharray:none;stroke-opacity:1" />
                  <path
                     id="path10881"
                     d="m 1385.5547,164.01172 v 27.4375 z"
                     style="fill:none;stroke:#000000;stroke-width:0.80879;stroke-linecap:butt;stroke-linejoin:miter;stroke-dasharray:none;stroke-opacity:1" />
                  <path
                     id="path10883"
                     d="m 1371.8906,177.79102 h 27.4375 z"
                     style="fill:none;stroke:#000000;stroke-width:0.80879;stroke-linecap:butt;stroke-linejoin:miter;stroke-dasharray:none;stroke-opacity:1" />
                  <path
                     transform="matrix(0.61136763,0,0,0.61136763,910.52629,108.28422)"
                     id="path10885"
                     d="m 728.67773,135.0918 c -3.29214,0.56819 -3.33452,3.5109 3.44532,8.1875 43.97748,24.13301 38.51562,57.59179 38.51562,57.59179 5.2994,-17.18607 -8.8789,-40.85156 -8.8789,-40.85156 0,0 -5.44521,-9.87357 -17.03125,-18.86523 -6.21703,-4.82489 -12.75864,-6.6307 -16.05079,-6.0625 z"
                     style="fill:none;stroke:#000000;stroke-width:1.5875;stroke-linecap:butt;stroke-linejoin:miter;stroke-dasharray:none;stroke-opacity:1" />
                  <path
                     transform="matrix(-0.61136763,0,0,0.61136763,1860.6574,108.28422)"
                     id="path10887"
                     d="m 728.67773,135.0918 c -3.29214,0.56819 -3.33452,3.5109 3.44532,8.1875 43.97748,24.13301 38.51562,57.59179 38.51562,57.59179 5.2994,-17.18607 -8.8789,-40.85156 -8.8789,-40.85156 0,0 -5.44521,-9.87357 -17.03125,-18.86523 -6.21703,-4.82489 -12.75864,-6.6307 -16.05079,-6.0625 z"
                     style="fill:none;stroke:#000000;stroke-width:1.5875;stroke-linecap:butt;stroke-linejoin:miter;stroke-dasharray:none;stroke-opacity:1" />
                  <path
                     transform="matrix(0.13556337,0,0,0.13556337,1220.8441,199.40981)"
                     id="path10889"
                     d="m 1179.4082,-224.78906 -2.2441,0.11718 c -1.235,0.0648 -2.3096,0.18066 -2.3868,0.25782 -0.077,0.0772 -0.2143,1.28912 -0.3066,2.69336 -0.1425,2.17003 -0.2374,2.55468 -0.623,2.55468 -0.8799,0 -4.1407,1.85091 -5.336,3.0293 -1.986,1.95794 -2.4648,3.21657 -2.4648,6.49414 0,3.28792 0.3517,4.22044 2.3183,6.14649 1.2287,1.20344 4.0578,2.76455 9.4043,5.18945 3.4003,1.54217 4.6155,3.12686 4.0391,5.26758 -0.3408,1.26546 -1.137,2.04047 -2.6387,2.57031 -2.4832,0.8761 -5.2871,0.23466 -8.789,-2.01172 -1.1379,-0.72988 -2.1845,-1.25553 -2.3262,-1.16797 -0.1417,0.0876 -0.8628,1.06459 -1.6035,2.17188 -1.6044,2.39882 -1.5877,2.45897 1.2148,4.38476 1.6484,1.13277 5.1416,2.58594 6.2188,2.58594 0.4775,0 0.7617,1.44766 0.7617,3.87305 v 1.41797 h 2.2148 2.2149 l 0.166,-0.99219 c 0.09,-0.5457 0.1644,-1.62433 0.166,-2.39649 v -1.40429 l 1.2578,-0.51953 c 2.4434,-1.01303 3.5776,-1.68356 4.707,-2.78125 2.1934,-2.13168 3.2877,-5.47161 2.795,-8.53125 -0.6282,-3.90101 -2.7129,-5.80659 -9.4961,-8.67969 -1.9731,-0.8357 -4.0728,-1.88604 -4.666,-2.33399 -3.8789,-2.9291 -1.4777,-7.04681 3.9082,-6.70117 1.899,0.12187 3.8079,0.83148 6.0175,2.24024 0.3773,0.24059 0.8643,0.36876 1.0821,0.28515 0.2179,-0.0836 0.9099,-1.13809 1.5371,-2.34375 l 1.1406,-2.1914 -0.9004,-0.76367 c -1.195,-1.01383 -3.5779,-2.213 -5.1699,-2.60157 -2.2657,-0.55302 -2.2129,-0.47284 -2.2129,-3.32226 z"
                     style="display:inline;fill:#000000;fill-opacity:1;stroke:#000000;stroke-width:1.95173;stroke-dasharray:none;stroke-opacity:1" />
                  <path
                     id="path10891"
                     d="m 1381.9434,180.13477 c -0.5606,0.0238 -1.1123,0.31152 -1.3926,0.85351 -0.123,0.23693 -0.1992,0.78775 -0.1992,1.42188 0,1.03551 -8e-4,1.03657 -0.5137,0.82226 -1.4611,-0.61046 -2.8693,0.43485 -2.7656,2.05274 0.054,0.84424 0.2581,1.1813 1,1.65429 0.6,0.38254 1.6829,0.28278 2.3379,-0.21679 0.4607,-0.35148 0.5147,-0.36235 0.8007,-0.16211 0.6618,0.46354 1.8572,0.13888 2.2442,-0.60938 0.3484,-0.67337 0.2986,-4.48523 -0.066,-5.08398 -0.3151,-0.51667 -0.8848,-0.75626 -1.4453,-0.73242 z m 0.076,0.65429 c 0.4253,-0.005 0.8609,0.46364 0.9024,1.40821 0.037,0.84926 0.038,0.84961 -0.8516,0.84961 -0.8898,-10e-6 -0.8906,-0.002 -0.8906,-0.83008 0,-0.94507 0.4146,-1.42269 0.8398,-1.42774 z m -2.8457,3.08594 c 0.5056,0 1.1778,0.6868 1.1778,1.20508 0,0.75745 -0.3397,0.99904 -0.6231,0.44336 -0.1332,-0.26131 -0.3948,-0.73971 -0.582,-1.0625 -0.34,-0.5869 -0.3417,-0.58594 0.027,-0.58594 z m 2.8965,0 c 0.8914,0 0.8919,-3.8e-4 0.8379,0.72461 -0.029,0.39874 -0.053,0.80153 -0.062,0.89453 -0.012,0.22331 -0.7131,0.57098 -0.9766,0.48438 -0.5253,-0.17276 -0.6894,-0.4833 -0.6894,-1.29688 0,-0.80715 0,-0.80664 0.8906,-0.80664 z m -3.9258,0.55078 c 0.096,0.0781 0.2403,0.32633 0.5274,0.82422 0.3158,0.54769 0.5742,1.05375 0.5742,1.12305 0,0.26716 -0.6209,0.0772 -1.0625,-0.32422 -0.4053,-0.36851 -0.5215,-0.95969 -0.2793,-1.42188 0.097,-0.18553 0.1442,-0.27926 0.2402,-0.20117 z"
                     style="fill:#000000;fill-opacity:1;stroke:#000000;stroke-width:0.0799042;stroke-dasharray:none;stroke-opacity:1" />
                  <path
                     transform="matrix(0.50009464,0,0,0.50009464,804.18356,203.45787)"
                     id="path10893"
                     d="m 1181.207,-44.59375 c -0.2756,-0.0036 -1.1425,2.384634 -1.1425,3.146484 0,0.49325 -0.3971,0.323485 -1.1954,-0.509765 -0.4818,-0.5029 -1.143,-0.860831 -1.7812,-0.962891 -0.6089,-0.09736 -1.2863,-0.449569 -1.6934,-0.880859 -0.7852,-0.83192 -2.4045,-0.730565 -3.7597,0.234375 -0.3946,0.28098 -1.1443,0.591253 -1.668,0.689453 -1.4877,0.27911 -2.6099,1.099258 -3.0566,2.236328 -0.2212,0.56305 -0.6265,1.082697 -0.9004,1.154297 -0.83,0.21705 -0.5625,1.090548 0.6933,2.267578 0.6549,0.61377 1.1895,1.338465 1.1895,1.609375 0,0.2709 0.1501,0.553553 0.332,0.626953 0.1819,0.07344 2.6253,0.142797 5.4297,0.154297 5.0989,0.02089 5.0989,0.02058 5.4062,-0.707031 0.1691,-0.40018 0.8323,-1.280818 1.4747,-1.955078 1.0221,-1.072811 1.1315,-1.294977 0.8691,-1.785157 -0.2368,-0.44259 -0.1777,-1.008055 0.2852,-2.697265 0.6017,-2.19535 0.5256,-2.607994 -0.4825,-2.621094 z m -4.9922,0.423828 c -0.235,-0.09036 -0.343,-0.04646 -0.25,0.103516 0.089,0.14386 0.2733,0.261719 0.4102,0.261718 0.3806,0 0.2981,-0.189344 -0.1602,-0.365234 z m -1.8652,1.195313 c 0.6398,-0.0075 1.2139,0.233764 1.627,0.724609 0.3827,0.45491 0.8272,0.828125 0.9882,0.828125 0.3422,0 1.7774,1.321369 1.7774,1.636719 0,0.11828 -2.3826,0.214844 -5.293,0.214844 -3.5122,0 -5.291,-0.09334 -5.291,-0.277344 0,-0.56279 1.3557,-1.5107 2.3535,-1.644532 0.5657,-0.07588 1.3807,-0.397003 1.8106,-0.714843 0.6812,-0.503595 1.3875,-0.760116 2.0273,-0.767578 z m -0.6348,4.859375 c 2.7647,0 5.0176,0.06001 5.0176,0.132812 0,0.07276 -0.2962,0.459195 -0.6484,0.859375 -0.9179,1.04287 -8.2637,1.152193 -8.9317,0.132813 -0.7247,-1.10598 -0.6501,-1.125 4.5625,-1.125 z"
                     style="display:inline;fill:#000000;fill-opacity:1;stroke:#000000;stroke-width:0.529067;stroke-dasharray:none;stroke-opacity:1" />
                  <path
                     id="path10895"
                     d="m 1393.1562,168.95312 c -0.1688,10e-6 -0.134,8.3e-4 -0.3066,0.0156 -0.01,7e-4 -0.084,0.007 -0.074,0.0254 -0.2492,0.039 -0.8201,0.31225 -1.1836,0.60547 -0.1334,0.10759 -0.1069,0.10988 -0.2871,-0.0352 -0.3761,-0.30278 -0.7795,-0.49384 -1.0684,-0.56054 -0.024,-0.0391 -0.1033,-0.0346 -0.1133,-0.0352 -0.04,-0.003 -0.1398,0 -0.3085,0 -0.1791,0 -0.2947,-0.004 -0.3047,0.002 0,0 -0.018,0.0166 -0.039,0.0176 0,0 -0.2592,0.0455 -0.5019,0.14453 -0.75,0.30598 -1.3469,1.01681 -1.5079,1.86719 -0.018,0.0844 -0.01,0.13557 -0.017,0.16797 -0.014,0.009 -0.012,0.58887 0.01,0.66797 0,0.009 0.012,0.01 0.012,0.0664 0,0.0571 0.028,0.10599 0.047,0.17969 0.2837,1.11908 1.5355,2.45787 3.5664,3.87109 0.1864,0.12968 0.3357,0.242 0.3457,0.25 0.014,0.0141 0.075,0.0179 0.084,0.002 0,-0.007 0.053,-0.0435 0.1094,-0.0801 2.0567,-1.33627 3.7035,-3.12234 3.8652,-4.21875 0,-0.0454 0.01,-0.0907 0.01,-0.10156 0.01,-0.0286 0.022,-0.14058 0.022,-0.32813 0,-0.21595 0,-0.26594 -0.014,-0.33984 -0.01,-0.009 -0.01,-0.0101 -0.01,-0.0293 -0.011,-0.27971 -0.247,-0.84589 -0.4804,-1.17578 -0.3408,-0.48182 -0.9641,-0.83318 -1.4532,-0.9375 -0.031,-0.0246 -0.084,-0.0245 -0.094,-0.0254 -0.017,-0.002 -0.1378,-0.0156 -0.3067,-0.0156 z m -3.1894,0.61524 c 0.4298,0.0377 0.6913,0.1908 1.2852,0.75391 0.1162,0.1102 0.2126,0.20124 0.2226,0.20117 0.01,-7e-5 0.1219,-0.10492 0.2578,-0.23242 0.6185,-0.57998 0.9412,-0.73485 1.4961,-0.71875 0.4685,0.0136 0.7594,0.12124 1.0918,0.40234 0.4665,0.39477 0.7161,1.31745 0.5332,1.97461 -0.2572,0.92324 -1.4222,2.17771 -3.1426,3.38672 -0.129,0.0907 -0.2282,0.16437 -0.2382,0.16406 0,-3e-4 -0.024,-0.0146 -0.047,-0.0312 -0.024,-0.0167 -0.1227,-0.0868 -0.2207,-0.15625 -1.4535,-1.02391 -2.5053,-2.06171 -2.9317,-2.89648 -0.7074,-1.38465 0.2384,-2.97521 1.6934,-2.84766 z"
                     style="fill:#000000;fill-opacity:1;stroke:#000000;stroke-width:0.279665;stroke-dasharray:none;stroke-opacity:1" />
                </g>
              </g>
            </g>
          </g>
        </g>
      </g>
    </g>
  </g>
</svg>
