<?xml version="1.0" encoding="UTF-8" standalone="no"?>
<!-- Created with Inkscape (http://www.inkscape.org/) -->

<svg
   width="102.64783mm"
   height="131.61922mm"
   viewBox="0 0 102.64783 131.61922"
   version="1.1"
   id="svg5"
   inkscape:version="1.2.1 (1:1.2.1+202210291243+9c6d41e410)"
   sodipodi:docname="rika_relief_main_symbol.svg"
   xml:space="preserve"
   xmlns:inkscape="http://www.inkscape.org/namespaces/inkscape"
   xmlns:sodipodi="http://sodipodi.sourceforge.net/DTD/sodipodi-0.dtd"
   xmlns="http://www.w3.org/2000/svg"
   xmlns:svg="http://www.w3.org/2000/svg"><sodipodi:namedview
     id="namedview7"
     pagecolor="#ffffff"
     bordercolor="#999999"
     borderopacity="1"
     inkscape:showpageshadow="0"
     inkscape:pageopacity="0"
     inkscape:pagecheckerboard="0"
     inkscape:deskcolor="#d1d1d1"
     inkscape:document-units="mm"
     showgrid="false"
     inkscape:zoom="0.23789602"
     inkscape:cx="2259.3905"
     inkscape:cy="1292.5815"
     inkscape:window-width="1862"
     inkscape:window-height="1016"
     inkscape:window-x="58"
     inkscape:window-y="27"
     inkscape:window-maximized="1"
     inkscape:current-layer="layer1" /><defs
     id="defs2"><inkscape:path-effect
       effect="mirror_symmetry"
       start_point="777.05383,134.99002"
       end_point="777.05383,200.87135"
       center_point="777.05383,167.93068"
       id="path-effect417-3-6-6"
       is_visible="true"
       lpeversion="1.2"
       lpesatellites="#path419-6-0-0"
       mode="X"
       discard_orig_path="false"
       fuse_paths="false"
       oposite_fuse="false"
       split_items="true"
       split_open="false"
       link_styles="false" /></defs><g
     inkscape:label="Layer 1"
     inkscape:groupmode="layer"
     id="layer1"
     transform="translate(-1445.7387,-31.496089)"><rect
       style="fill:#e3dedb;fill-opacity:1;stroke:#000000;stroke-width:0.586673;stroke-linecap:round"
       id="rect1192-3"
       width="220.35178"
       height="356.53668"
       x="1385.1278"
       y="-30.081335"
       ry="2.7230287" /><g
       id="g9564"><circle
         style="fill:#000000;fill-opacity:1;stroke:#000000;stroke-width:0.35016"
         id="circle1643-5-3-3"
         cx="1497.0029"
         cy="35.612667"
         r="3.9414971" /><circle
         style="fill:#000000;fill-opacity:1;stroke:#000000;stroke-width:0.35016"
         id="circle1645-3-5-5"
         cx="1497.0029"
         cy="115.21529"
         r="3.9414971" /><circle
         style="fill:#000000;fill-opacity:1;stroke:#000000;stroke-width:0.35016"
         id="circle1647-5-6-6"
         cx="1536.0984"
         cy="75.701752"
         r="3.9414971" /><circle
         style="fill:#000000;fill-opacity:1;stroke:#000000;stroke-width:0.35016"
         id="circle1649-6-2-2"
         cx="1457.6625"
         cy="75.701752"
         r="3.9414971" /><circle
         style="fill:none;fill-opacity:1;stroke:#000000;stroke-width:1.32292;stroke-dasharray:none"
         id="circle1651-2-9-9"
         cx="1497.0029"
         cy="75.701752"
         r="22.396969" /><path
         style="fill:none;stroke:#000000;stroke-width:1.5875;stroke-linecap:round;stroke-linejoin:miter;stroke-dasharray:none;stroke-opacity:1"
         d="m 1462.185,68.446742 c 27.9187,-27.918687 27.9187,-27.918687 27.9187,-27.918687"
         id="path1653-9-1-1" /><path
         style="fill:none;stroke:#000000;stroke-width:1.5875;stroke-linecap:round;stroke-linejoin:miter;stroke-dasharray:none;stroke-opacity:1"
         d="m 1462.185,81.803046 c 27.9187,27.918694 27.9187,27.918694 27.9187,27.918694"
         id="path1655-1-2-2" /><path
         style="fill:none;stroke:#000000;stroke-width:1.5875;stroke-linecap:round;stroke-linejoin:miter;stroke-dasharray:none;stroke-opacity:1"
         d="m 1532.4371,81.80304 c -27.9188,27.9187 -27.9188,27.9187 -27.9188,27.9187"
         id="path1657-2-7-7" /><path
         style="fill:none;stroke:#000000;stroke-width:1.5875;stroke-linecap:round;stroke-linejoin:miter;stroke-dasharray:none;stroke-opacity:1"
         d="m 1503.4601,40.528044 c 27.9186,27.918687 27.9186,27.918687 27.9186,27.918687"
         id="path1659-7-0-0" /><path
         style="fill:none;stroke:#000000;stroke-width:1.32292;stroke-linecap:butt;stroke-linejoin:miter;stroke-dasharray:none;stroke-opacity:1"
         d="m 1497.0029,53.161165 c 0,44.879019 0,44.879019 0,44.879019"
         id="path1661-0-9-9" /><path
         style="fill:none;stroke:#000000;stroke-width:1.32292;stroke-linecap:butt;stroke-linejoin:miter;stroke-dasharray:none;stroke-opacity:1"
         d="m 1519.5317,75.70174 c -44.8789,0 -44.8789,0 -44.8789,0"
         id="path1663-9-3-3" /><path
         style="fill:none;stroke:#000000;stroke-width:1.5875;stroke-linecap:butt;stroke-linejoin:miter;stroke-dasharray:none;stroke-opacity:1"
         d="m 761.7598,160.02007 c 0,0 -5.44551,-9.87366 -17.03155,-18.86532 -12.43406,-9.64977 -26.16546,-7.22871 -12.60579,2.12449 43.97748,24.13301 38.51702,57.59211 38.51702,57.59211 5.2994,-17.18607 -8.87968,-40.85128 -8.87968,-40.85128 z"
         id="path331-3-6-6"
         sodipodi:nodetypes="csccc"
         transform="translate(720.00886,-37.989932)"
         inkscape:original-d="m 761.7598,160.02007 c 0,0 -5.44551,-9.87366 -17.03155,-18.86532 -12.43406,-9.64977 -26.16546,-7.22871 -12.60579,2.12449 43.97748,24.13301 38.51702,57.59211 38.51702,57.59211 5.2994,-17.18607 -8.87968,-40.85128 -8.87968,-40.85128 z"
         inkscape:path-effect="#path-effect417-3-6-6"
         class="UnoptimicedTransforms" /><path
         class="UnoptimicedTransforms"
         id="path419-6-0-0"
         d="m 761.7598,160.02007 c 0,0 -5.44551,-9.87366 -17.03155,-18.86532 -12.43406,-9.64977 -26.16546,-7.22871 -12.60579,2.12449 43.97748,24.13301 38.51702,57.59211 38.51702,57.59211 5.2994,-17.18607 -8.87968,-40.85128 -8.87968,-40.85128 z"
         style="fill:none;stroke:#000000;stroke-width:1.5875;stroke-linecap:butt;stroke-linejoin:miter;stroke-dasharray:none;stroke-opacity:1"
         transform="matrix(-1,0,0,1,2274.1165,-37.989932)" /><path
         id="path1034-6-6"
         d="m 1179.4082,-224.78906 -2.2441,0.11718 c -1.235,0.0648 -2.3096,0.18066 -2.3868,0.25782 -0.077,0.0772 -0.2143,1.28912 -0.3066,2.69336 -0.1425,2.17003 -0.2374,2.55468 -0.623,2.55468 -0.8799,0 -4.1407,1.85091 -5.336,3.0293 -1.986,1.95794 -2.4648,3.21657 -2.4648,6.49414 0,3.28792 0.3517,4.22044 2.3183,6.14649 1.2287,1.20344 4.0578,2.76455 9.4043,5.18945 3.4003,1.54217 4.6155,3.12686 4.0391,5.26758 -0.3408,1.26546 -1.137,2.04047 -2.6387,2.57031 -2.4832,0.8761 -5.2871,0.23466 -8.789,-2.01172 -1.1379,-0.72988 -2.1845,-1.25553 -2.3262,-1.16797 -0.1417,0.0876 -0.8628,1.06459 -1.6035,2.17188 -1.6044,2.39882 -1.5877,2.45897 1.2148,4.38476 1.6484,1.13277 5.1416,2.58594 6.2188,2.58594 0.4775,0 0.7617,1.44766 0.7617,3.87305 v 1.41797 h 2.2148 2.2149 l 0.166,-0.99219 c 0.09,-0.5457 0.1644,-1.62433 0.166,-2.39649 v -1.40429 l 1.2578,-0.51953 c 2.4434,-1.01303 3.5776,-1.68356 4.707,-2.78125 2.1934,-2.13168 3.2877,-5.47161 2.795,-8.53125 -0.6282,-3.90101 -2.7129,-5.80659 -9.4961,-8.67969 -1.9731,-0.8357 -4.0728,-1.88604 -4.666,-2.33399 -3.8789,-2.9291 -1.4777,-7.04681 3.9082,-6.70117 1.899,0.12187 3.8079,0.83148 6.0175,2.24024 0.3773,0.24059 0.8643,0.36876 1.0821,0.28515 0.2179,-0.0836 0.9099,-1.13809 1.5371,-2.34375 l 1.1406,-2.1914 -0.9004,-0.76367 c -1.195,-1.01382 -3.5779,-2.213 -5.1699,-2.60157 -2.2657,-0.55302 -2.2129,-0.47284 -2.2129,-3.32226 z"
         style="display:inline;fill:#000000;stroke-width:0.264583"
         class="UnoptimicedTransforms"
         transform="matrix(0.22173789,0,0,0.22173789,1227.5887,111.06212)" /><path
         d="m 1484.7634,90.665906 c -1.2136,-0.773667 -1.5478,-1.326508 -1.6362,-2.707413 -0.1697,-2.64634 2.1344,-4.356484 4.5242,-3.357969 0.839,0.350539 0.839,0.350539 0.839,-1.343223 0,-1.03723 0.1268,-1.939073 0.3272,-2.326628 0.9169,-1.773028 3.6105,-1.887577 4.6411,-0.197367 0.5971,0.979367 0.6796,7.212526 0.11,8.313956 -0.633,1.223901 -2.5895,1.755074 -3.672,0.996867 -0.4676,-0.327531 -0.5552,-0.3098 -1.3089,0.265109 -1.0713,0.817146 -2.843,0.982372 -3.8244,0.356668 z m 1.92,-0.928572 c 0,-0.11332 -0.4226,-0.938995 -0.9391,-1.834836 -0.9391,-1.628803 -0.9391,-1.628803 -1.2571,-1.021847 -0.3961,0.755988 -0.2057,1.725221 0.4573,2.327977 0.7222,0.656582 1.7389,0.965682 1.7389,0.528706 z m 5.8874,-1.43736 c 0.01,-0.152104 0.055,-0.810172 0.1038,-1.462392 0.089,-1.185843 0.089,-1.185843 -1.3698,-1.185843 -1.4591,0 -1.4591,0 -1.4591,1.320241 0,1.330742 0.27,1.837773 1.1293,2.120357 0.4309,0.141706 1.5764,-0.42709 1.5958,-0.792363 z m -4.0804,-0.675902 c 0,-0.847743 -1.0971,-1.972333 -1.9241,-1.972333 -0.6035,0 -0.6035,0 -0.047,0.959971 0.3062,0.52798 0.7351,1.309664 0.953,1.737078 0.4635,0.908911 1.0179,0.514228 1.0179,-0.724716 z m 4.2054,-4.716703 c -0.1359,-3.090034 -2.8501,-3.057781 -2.8501,0.03389 0,1.355252 0,1.355252 1.4555,1.355252 1.4557,0 1.4557,0 1.3946,-1.389119 z"
         style="fill:#000000;stroke-width:0.225875"
         id="path1793-2-2" /><path
         transform="matrix(0.81799332,0,0,0.81799332,546.0665,117.68343)"
         id="path1733-6-6"
         d="m 1181.207,-44.59375 c -0.2756,-0.0036 -1.1425,2.384634 -1.1425,3.146484 0,0.49325 -0.3971,0.323485 -1.1954,-0.509765 -0.4818,-0.5029 -1.143,-0.860831 -1.7812,-0.962891 -0.6089,-0.09736 -1.2863,-0.449569 -1.6934,-0.880859 -0.7852,-0.83192 -2.4045,-0.730565 -3.7597,0.234375 -0.3946,0.28098 -1.1443,0.591253 -1.668,0.689453 -1.4877,0.27911 -2.6099,1.099258 -3.0566,2.236328 -0.2212,0.56305 -0.6265,1.082697 -0.9004,1.154297 -0.83,0.21705 -0.5625,1.090548 0.6933,2.267578 0.6549,0.61377 1.1895,1.338465 1.1895,1.609375 0,0.2709 0.1501,0.553553 0.332,0.626953 0.1819,0.07344 2.6253,0.142797 5.4297,0.154297 5.0989,0.02089 5.0989,0.02058 5.4062,-0.707031 0.1691,-0.40018 0.8323,-1.280818 1.4747,-1.955078 1.0221,-1.072811 1.1315,-1.294977 0.8691,-1.785157 -0.2368,-0.44259 -0.1777,-1.008055 0.2852,-2.697265 0.6017,-2.19535 0.5256,-2.607994 -0.4825,-2.621094 z m -4.9922,0.423828 c -0.235,-0.09036 -0.343,-0.04646 -0.25,0.103516 0.089,0.14386 0.2733,0.261718 0.4102,0.261718 0.3806,0 0.2981,-0.189344 -0.1602,-0.365234 z m -1.8652,1.195313 c 0.6398,-0.0075 1.2139,0.233764 1.627,0.724609 0.3827,0.45491 0.8272,0.828125 0.9882,0.828125 0.3422,0 1.7774,1.321369 1.7774,1.636719 0,0.11828 -2.3826,0.214844 -5.293,0.214844 -3.5122,0 -5.291,-0.09334 -5.291,-0.277344 0,-0.56279 1.3557,-1.510701 2.3535,-1.644532 0.5657,-0.07588 1.3807,-0.397003 1.8106,-0.714843 0.6812,-0.503595 1.3875,-0.760116 2.0273,-0.767578 z m -0.6348,4.859375 c 2.7647,0 5.0176,0.06001 5.0176,0.132812 0,0.07276 -0.2962,0.459195 -0.6484,0.859375 -0.9179,1.04287 -8.2637,1.152193 -8.9317,0.132813 -0.7247,-1.10598 -0.6501,-1.125 4.5625,-1.125 z"
         style="display:inline;fill:#000000;stroke-width:0.264583"
         class="UnoptimicedTransforms"
         sodipodi:nodetypes="ssssssssssssssssssssssssssssssssssss" /><path
         style="fill:#000000;stroke-width:1.32292;stroke-dasharray:none"
         d="m 1506.6006,73.10406 c -0.01,-0.01227 -0.2587,-0.195851 -0.5635,-0.407965 -3.3218,-2.311594 -5.3453,-4.507806 -5.8341,-6.331831 -0.037,-0.138368 -0.068,-0.286089 -0.068,-0.328269 -10e-5,-0.04218 -0.013,-0.07669 -0.028,-0.07669 -0.033,0 -0.039,-1.078074 -0.01,-1.092256 0.012,-0.0051 0.043,-0.12224 0.069,-0.260283 0.2634,-1.390941 1.1994,-2.573583 2.4285,-3.068424 0.2621,-0.105482 0.7153,-0.236043 0.82,-0.236161 0.034,-3.8e-5 0.063,-0.01262 0.063,-0.02796 0,-0.01756 0.1859,-0.02789 0.502,-0.02789 0.276,0 0.502,0.01038 0.502,0.02306 0,0.01269 0.084,0.03855 0.1867,0.05747 0.5023,0.09255 1.1327,0.424144 1.7479,0.919393 0.2948,0.237242 0.2489,0.231758 0.4671,0.05582 0.5948,-0.479616 1.4691,-0.926524 1.9384,-0.990856 0.067,-0.0092 0.1218,-0.02754 0.1218,-0.04079 0,-0.01325 0.2259,-0.0241 0.502,-0.0241 0.2761,0 0.502,0.01082 0.502,0.02405 0,0.01323 0.068,0.03209 0.152,0.04192 0.8128,0.09553 1.8192,0.74448 2.3768,1.53258 0.3817,0.539606 0.7619,1.494666 0.7619,1.914091 0,0.03132 0.013,0.05695 0.028,0.05695 0.018,0 0.028,0.204507 0.028,0.557747 0,0.306761 -0.011,0.557748 -0.025,0.557748 -0.014,0 -0.034,0.05961 -0.044,0.132465 -0.2646,1.793372 -2.9392,4.726222 -6.3033,6.911937 -0.092,0.05979 -0.1715,0.118125 -0.1767,0.129629 -0.013,0.02801 -0.1369,0.02684 -0.1487,-0.0014 z m 0.4717,-1.418585 c 2.814,-1.977556 4.7186,-4.031349 5.1393,-5.541475 0.2992,-1.074912 -0.1075,-2.583066 -0.8711,-3.22878 -0.5435,-0.459791 -1.0218,-0.63573 -1.7881,-0.657897 -0.9077,-0.02625 -1.4334,0.226395 -2.445,1.17505 -0.2225,0.208553 -0.4125,0.379281 -0.4224,0.379396 -0.01,1.05e-4 -0.1734,-0.147248 -0.3635,-0.32747 -0.9714,-0.921059 -1.4,-1.172609 -2.1031,-1.234243 -2.3799,-0.208633 -3.927,2.392588 -2.77,4.657421 0.6975,1.365411 2.417,3.065451 4.7945,4.740223 0.161,0.113448 0.3241,0.228624 0.3625,0.255948 0.038,0.02732 0.073,0.05007 0.076,0.05056 0.01,5.04e-4 0.1794,-0.120445 0.3904,-0.268735 z"
         id="path1997-1-1" /></g></g></svg>
